<svg xmlns="http://www.w3.org/2000/svg" viewBox="0 0 22.1 21.2"><path fill="#010101" d="M21.8 0h-.1c-1 3.3-1.3 7.3-4 8.8-.5-1.4-1.8-2.1-3.2-2.7-.9-.4-1.9-1.1-2.8-1.1-.2 0-.4 0-.6.1-.3-.1-.5-.1-.7-.1-.9 0-1.9.7-2.8 1.1-1.5.7-2.7 1.3-3.2 2.7-2.8-1.5-3-5.6-4-8.8H.3C.1.3.1.7 0 1c0 .8.2 9.2.8 12.2.5 2.7 2.6 4.6 4.6 5.9 1.4.9 3.6 2.1 5.6 2.1 1.9 0 4.2-1.2 5.6-2.1 2-1.3 4.1-3.2 4.6-5.9.6-3 .8-11.4.8-12.2 0-.3-.1-.7-.2-1zm-6 12c-.1.7-.7 1.5-1.4 1.5-1.3.1-1.9-1.9-3.4-1.9-1.4 0-2.1 1.9-3.4 1.9-.7 0-1.3-.8-1.4-1.5-.1-.8.3-2 .7-2.4.5-.5 1.2-.4 2-.5.9-.1 1.7-.4 2.1-.8.5.5 1.2.7 2.1.8.8.1 1.5.1 2 .5.5.5.9 1.6.7 2.4z"/></svg>